<svg width="240" height="60" viewBox="0 0 240 60" xmlns="http://www.w3.org/2000/svg"><g fill="none"><path d="M57.494 31.051a0.267 0.267 0 0 1 -0.126 -0.032 1.195 1.195 0 0 1 -0.281 -0.211 1.193 1.193 0 0 1 -0.21 -0.281 0.266 0.266 0 0 1 0 -0.253 1.194 1.194 0 0 1 0.21 -0.282 1.206 1.206 0 0 1 0.28 -0.211 0.267 0.267 0 0 1 0.254 0 1.207 1.207 0 0 1 0.281 0.211 1.207 1.207 0 0 1 0.21 0.281 0.267 0.267 0 0 1 0 0.254 1.211 1.211 0 0 1 -0.21 0.281 1.201 1.201 0 0 1 -0.281 0.211 0.266 0.266 0 0 1 -0.127 0.032Zm0 0a0.267 0.267 0 0 1 -0.126 -0.032 1.195 1.195 0 0 1 -0.281 -0.211 1.193 1.193 0 0 1 -0.21 -0.281 0.266 0.266 0 0 1 0 -0.253 1.194 1.194 0 0 1 0.21 -0.282 1.206 1.206 0 0 1 0.28 -0.211 0.267 0.267 0 0 1 0.254 0 1.207 1.207 0 0 1 0.281 0.211 1.207 1.207 0 0 1 0.21 0.281 0.267 0.267 0 0 1 0 0.254 1.211 1.211 0 0 1 -0.21 0.281 1.201 1.201 0 0 1 -0.281 0.211 0.266 0.266 0 0 1 -0.127 0.032ZM1.482 29.992a1.202 1.202 0 0 1 0.21 0.281 0.267 0.267 0 0 1 0 0.254 1.206 1.206 0 0 1 -0.211 0.281 1.192 1.192 0 0 1 -0.281 0.211 0.265 0.265 0 0 1 -0.253 0 1.201 1.201 0 0 1 -0.281 -0.211 1.212 1.212 0 0 1 -0.21 -0.282 0.266 0.266 0 0 1 0 -0.253 1.202 1.202 0 0 1 0.211 -0.281 1.201 1.201 0 0 1 0.28 -0.211 0.267 0.267 0 0 1 0.254 0 1.199 1.199 0 0 1 0.281 0.211Zm56.121 8.05c-0.105 0.374 -0.432 0.478 -0.987 0.322 -0.556 -0.157 -0.78 -0.418 -0.675 -0.791 0.105 -0.373 0.433 -0.482 0.989 -0.326 0.556 0.157 0.779 0.421 0.673 0.795Zm-0.453 -1.577c-0.893 -0.252 -1.602 0.119 -1.831 0.933 -0.228 0.809 0.18 1.491 1.078 1.745 0.901 0.254 1.599 -0.112 1.828 -0.925 0.229 -0.813 -0.178 -1.499 -1.075 -1.753Zm-1.284 5.864a7.583 7.583 0 0 0 0.456 0.216c0.001 0.441 -0.064 0.798 -0.218 1.101 -0.358 0.702 -1.035 0.9 -1.8 0.508 -0.923 -0.473 -1.195 -1.272 -0.732 -2.178 0.075 -0.148 0.172 -0.293 0.293 -0.44l0.708 0.272c-0.189 0.13 -0.333 0.288 -0.427 0.471 -0.233 0.457 -0.064 0.88 0.46 1.149 0.445 0.228 0.825 0.141 0.985 -0.172 0.031 -0.061 0.054 -0.132 0.058 -0.202l-0.179 -0.092c-0.162 -0.083 -0.336 -0.15 -0.527 -0.211l0.377 -0.738c0.162 0.11 0.344 0.213 0.546 0.316Zm-2.707 4.875 0.437 0.457 -1.11 1.434c-0.338 -0.334 -0.704 -0.66 -1.099 -0.967 -0.405 -0.314 -0.81 -0.583 -1.182 -0.821l1.112 -1.438 0.52 0.338c-0.165 0.153 -0.323 0.332 -0.481 0.536l-0.173 0.224 0.421 0.327 0.608 -0.785 0.415 0.42c-0.161 0.162 -0.32 0.355 -0.491 0.575l-0.099 0.128 0.542 0.421 0.116 -0.15c0.181 -0.233 0.335 -0.466 0.464 -0.698Zm-3.417 3.889 0.379 0.561 -1.467 1.322c-0.126 -0.093 -0.26 -0.168 -0.413 -0.236 -0.065 -0.822 -0.163 -1.578 -0.298 -2.266l-0.105 0.095c-0.288 0.26 -0.524 0.51 -0.694 0.756l-0.365 -0.563 1.38 -1.244a2.016 2.016 0 0 0 0.45 0.302c0.088 0.823 0.184 1.547 0.289 2.165l0.057 -0.052c0.267 -0.24 0.533 -0.513 0.787 -0.84Zm-2.999 -1.163c-0.162 -0.18 -0.149 -0.437 0.04 -0.607 0.168 -0.151 0.362 -0.147 0.505 0.012 0.165 0.183 0.161 0.475 -0.026 0.643 -0.153 0.138 -0.372 0.118 -0.52 -0.048Zm-2.247 5.293c-0.332 0.2 -0.642 0.052 -0.939 -0.443 -0.298 -0.496 -0.283 -0.839 0.049 -1.039 0.332 -0.2 0.646 -0.054 0.943 0.441 0.297 0.495 0.279 0.841 -0.053 1.041Zm-1.223 -2.036c-0.719 0.433 -0.888 1.21 -0.408 2.01 0.483 0.804 1.241 1.016 1.963 0.581 0.723 -0.435 0.896 -1.214 0.415 -2.014 -0.479 -0.796 -1.248 -1.012 -1.971 -0.576Zm-4.182 4.605c-0.038 0.013 -0.084 0.03 -0.127 0.041 -0.03 -0.084 -0.113 -0.307 -0.241 -0.669 0.063 -0.027 0.123 -0.052 0.176 -0.071 0.372 -0.132 0.581 -0.1 0.668 0.144 0.084 0.236 -0.076 0.413 -0.476 0.555Zm-0.519 -1.055c-0.082 -0.232 -0.152 -0.43 -0.2 -0.59 0.067 -0.028 0.132 -0.051 0.2 -0.075 0.289 -0.103 0.459 -0.069 0.525 0.118 0.074 0.21 -0.073 0.386 -0.446 0.519l-0.08 0.028Zm0.828 -0.105c0.345 -0.26 0.463 -0.555 0.363 -0.837 -0.168 -0.472 -0.64 -0.502 -1.477 -0.204 -0.114 0.04 -0.25 0.093 -0.402 0.147l-0.487 0.173c0.222 0.47 0.404 0.912 0.553 1.331a12.411 12.411 0 0 1 0.405 1.409l0.631 -0.225c0.567 -0.201 0.994 -0.361 1.247 -0.722 0.144 -0.21 0.179 -0.463 0.092 -0.706 -0.129 -0.366 -0.442 -0.486 -0.926 -0.366Zm-10.278 2.106c0.064 -0.227 0.16 -0.582 0.32 -1.06 0.15 0.468 0.244 0.824 0.293 1.058l-0.613 0.001Zm0.335 -1.63c-0.174 0 -0.351 -0.003 -0.525 -0.011 -0.103 0.598 -0.412 1.557 -0.937 2.905l0.855 -0.002c0.052 -0.295 0.103 -0.526 0.148 -0.692l0.872 -0.002c0.049 0.162 0.098 0.392 0.151 0.691l0.94 -0.002c-0.45 -1.135 -0.776 -2.104 -0.971 -2.9 -0.173 0.009 -0.355 0.013 -0.533 0.014Zm-5.707 -0.602 0.786 0.184c-0.169 0.513 -0.315 1.014 -0.43 1.506A18.773 18.773 0 0 0 23.849 59.508l-0.802 -0.188c-0.155 -0.634 -0.382 -1.277 -0.666 -1.958l-0.063 0.272c-0.127 0.543 -0.218 1.024 -0.268 1.452l-0.798 -0.187c0.164 -0.472 0.308 -0.945 0.417 -1.414 0.115 -0.492 0.204 -0.965 0.278 -1.405l0.81 0.19c0.188 0.667 0.381 1.351 0.638 2.042 0.024 -0.102 0.052 -0.204 0.075 -0.302a17.464 17.464 0 0 0 0.281 -1.508Zm-6.951 -0.684 -0.548 -0.275c0.159 -0.174 0.404 -0.448 0.762 -0.802 -0.076 0.486 -0.152 0.846 -0.214 1.077Zm0.019 -1.826c-0.361 0.488 -1.067 1.205 -2.141 2.171l0.765 0.384c0.179 -0.24 0.329 -0.422 0.443 -0.551l0.779 0.391c-0.029 0.166 -0.089 0.394 -0.175 0.685l0.841 0.422c0.107 -1.216 0.252 -2.229 0.435 -3.028a11.388 11.388 0 0 1 -0.945 -0.474Zm-4.481 -2.976 0.708 0.562a21.701 21.701 0 0 0 -0.943 1.113c-0.126 0.158 -0.265 0.347 -0.432 0.559 -0.251 0.317 -0.472 0.543 -0.756 0.642 -0.358 0.128 -0.73 0.044 -1.109 -0.257a1.075 1.075 0 0 1 -0.126 -0.121l0.313 -0.551c0.056 0.086 0.109 0.149 0.163 0.191 0.348 0.276 0.602 0.02 1.101 -0.61 0.306 -0.386 0.664 -0.896 1.082 -1.529Zm-5.929 -3.098c0.149 0.191 0.12 0.424 -0.061 0.566 -0.188 0.146 -0.457 0.116 -0.596 -0.062 -0.139 -0.179 -0.11 -0.411 0.071 -0.553 0.188 -0.147 0.455 -0.119 0.586 0.049Zm-0.057 -3.713 0.402 0.733c-1.099 0.163 -2.089 0.372 -2.967 0.62l-0.373 -0.68c0.3 -0.267 0.668 -0.654 1.123 -1.159 -0.628 0.115 -1.147 0.226 -1.57 0.344l-0.383 -0.697c0.632 -0.569 1.337 -1.29 2.109 -2.182l0.439 0.8c-0.482 0.33 -0.964 0.794 -1.527 1.321 0.882 -0.163 1.556 -0.295 2.03 -0.404l0.237 0.432c-0.401 0.378 -0.882 0.86 -1.45 1.445 0.604 -0.116 1.249 -0.301 1.928 -0.574Zm-2.721 -7.392c0.259 0.193 0.524 0.333 0.794 0.417l0.16 0.576c-0.336 -0.125 -0.659 -0.337 -0.951 -0.638l-0.002 -0.356Zm-1.045 0.567c-0.16 0.044 -0.2 0.245 -0.283 0.565 -0.115 0.46 -0.211 0.734 -0.593 0.84 -0.54 0.15 -1.038 -0.194 -1.253 -0.973 -0.054 -0.195 -0.081 -0.397 -0.087 -0.601l0.599 -0.271c-0.003 0.278 0.022 0.502 0.071 0.681 0.084 0.304 0.214 0.44 0.37 0.397 0.167 -0.046 0.185 -0.253 0.275 -0.593 0.115 -0.447 0.22 -0.703 0.617 -0.813 0.517 -0.144 1.004 0.178 1.198 0.88 0.064 0.23 0.078 0.431 0.09 0.583l-0.594 0.228c0.013 -0.209 -0.004 -0.393 -0.052 -0.565 -0.075 -0.272 -0.215 -0.398 -0.359 -0.358Zm54.034 -14.964c0.466 -0.433 0.942 -0.873 1.378 -1.373l0.239 0.906c-0.316 0.226 -0.624 0.483 -0.929 0.748a9.585 9.585 0 0 0 1.185 0.221l0.21 0.793c-0.64 -0.228 -1.262 -0.401 -1.864 -0.547 -0.458 0.13 -0.85 0.259 -1.175 0.387l-0.239 -0.903c0.4 -0.052 0.774 -0.121 1.121 -0.213l0.074 -0.02Zm-3.667 -5.741c0.467 -0.177 0.921 -0.371 1.349 -0.588 0.45 -0.228 0.87 -0.463 1.253 -0.688l0.375 0.743c-0.389 0.573 -0.789 1.16 -1.153 1.801 0.094 -0.047 0.189 -0.091 0.279 -0.137a17.477 17.477 0 0 0 1.334 -0.752l0.364 0.722c-0.501 0.199 -0.978 0.409 -1.429 0.637a18.424 18.424 0 0 0 -1.17 0.646l-0.371 -0.736c0.386 -0.526 0.732 -1.113 1.07 -1.769l-0.249 0.126c-0.497 0.251 -0.924 0.49 -1.284 0.726l-0.369 -0.732Zm-1.64 -2.52 -1.158 -1.484a12.298 12.298 0 0 0 1.206 -0.831c0.404 -0.316 0.763 -0.644 1.084 -0.947l0.577 0.739c-0.557 0.349 -1.102 0.761 -1.652 1.191l-0.213 0.167 0.164 0.21a5.604 5.604 0 0 0 0.562 0.622l-0.57 0.333Zm-2.758 -6.39c-0.193 0.452 -0.356 0.782 -0.473 0.991l-0.463 -0.402c0.197 -0.129 0.502 -0.334 0.936 -0.589Zm-1.403 0.938 0.659 0.572c-0.069 0.154 -0.183 0.36 -0.339 0.62l0.711 0.617c0.404 -1.152 0.794 -2.098 1.168 -2.827a11.402 11.402 0 0 1 -0.41 -0.34 11.044 11.044 0 0 1 -0.389 -0.353c-0.47 0.384 -1.331 0.904 -2.611 1.575l0.647 0.561c0.232 -0.189 0.423 -0.329 0.565 -0.425ZM43.374 4.965c0.124 -0.213 0.241 -0.425 0.346 -0.63 -0.246 -0.138 -0.497 -0.237 -0.755 -0.298l0.392 -0.557L45.343 4.633l-0.284 0.62c-0.185 -0.196 -0.398 -0.367 -0.644 -0.514 -0.106 0.167 -0.2 0.313 -0.267 0.429 -0.344 0.594 -0.633 1.127 -0.847 1.633l-0.813 -0.472c0.293 -0.386 0.585 -0.842 0.887 -1.363Zm-4.183 -0.195 -0.897 -0.333c0.221 -0.422 0.414 -0.873 0.588 -1.343 0.154 -0.417 0.297 -0.873 0.428 -1.376l0.882 0.328c-0.225 0.468 -0.417 0.906 -0.572 1.323a12.325 12.325 0 0 0 -0.429 1.402Zm-4.746 -3.114c0.039 -0.21 0.081 -0.412 0.126 -0.606 0.056 0.006 0.092 0.013 0.116 0.018 0.29 0.054 0.415 0.217 0.367 0.476 -0.052 0.278 -0.248 0.406 -0.554 0.348 -0.032 -0.006 -0.063 -0.012 -0.094 -0.022l0.04 -0.214Zm-0.138 0.763c0.865 0.162 1.412 -0.13 1.534 -0.786 0.075 -0.401 -0.09 -0.749 -0.427 -0.923 -0.216 -0.115 -0.509 -0.178 -0.861 -0.244l-0.726 -0.136c-0.042 0.44 -0.094 0.924 -0.189 1.428a12.309 12.309 0 0 1 -0.356 1.422l0.912 0.171c0.012 -0.286 0.054 -0.598 0.112 -0.933Zm-6.215 0.043c0.496 -0.658 0.924 -1.287 1.28 -1.892l-0.141 0.001c-0.387 0.002 -0.73 0.033 -1.02 0.103L28.31 0.012 30.166 0a2.002 2.002 0 0 0 0.136 0.525c-0.48 0.674 -0.888 1.279 -1.219 1.811l0.077 -0.001c0.359 -0.002 0.738 -0.029 1.146 -0.104l-0.089 0.672 -1.973 0.012c-0.033 -0.154 -0.083 -0.299 -0.152 -0.452Zm-5.132 -0.922c-0.098 -0.528 0.264 -0.986 0.978 -1.119 0.234 -0.044 0.436 -0.041 0.588 -0.04l0.175 0.613c-0.207 -0.031 -0.391 -0.03 -0.566 0.003 -0.278 0.052 -0.414 0.18 -0.386 0.327 0.03 0.163 0.226 0.221 0.538 0.331 0.447 0.155 0.712 0.274 0.784 0.663 0.103 0.552 -0.282 1.019 -1.075 1.167 -0.198 0.037 -0.402 0.046 -0.605 0.035l-0.218 -0.621c0.276 0.027 0.5 0.022 0.683 -0.012 0.309 -0.058 0.456 -0.175 0.426 -0.334 -0.032 -0.171 -0.235 -0.207 -0.565 -0.326 -0.435 -0.153 -0.68 -0.28 -0.755 -0.685Zm-8.464 3.981c-0.241 -0.444 -0.489 -0.856 -0.726 -1.233l0.73 -0.398c0.584 0.372 1.182 0.754 1.833 1.098 -0.05 -0.092 -0.097 -0.186 -0.145 -0.275a17.56 17.56 0 0 0 -0.792 -1.312l0.709 -0.387c0.214 0.495 0.438 0.967 0.68 1.41a18.531 18.531 0 0 0 0.682 1.151l-0.723 0.395c-0.537 -0.37 -1.133 -0.698 -1.798 -1.016l0.133 0.245c0.266 0.49 0.518 0.91 0.765 1.262l-0.719 0.393c-0.192 -0.462 -0.399 -0.91 -0.629 -1.332Zm-4.37 2.157c0.294 -0.252 0.628 -0.16 1.003 0.279 0.375 0.439 0.414 0.784 0.12 1.036 -0.295 0.252 -0.625 0.157 -1 -0.282 -0.375 -0.439 -0.417 -0.781 -0.122 -1.033Zm1.542 1.807c0.641 -0.549 0.683 -1.346 0.078 -2.056 -0.603 -0.707 -1.398 -0.792 -2.039 -0.243 -0.638 0.546 -0.677 1.34 -0.071 2.05 0.608 0.713 1.392 0.797 2.033 0.248ZM6.019 13.365c-0.404 -0.316 -0.808 -0.586 -1.179 -0.826l0.569 -0.729c0.453 0.411 0.804 0.722 1.071 0.931 -0.13 -0.502 -0.354 -0.99 -0.639 -1.485l0.577 -0.739c0.21 0.657 0.383 1.183 0.537 1.57 0.17 -0.041 0.347 -0.051 0.533 -0.034 0.472 0.051 0.896 0.158 1.289 0.153l-0.641 0.822c-0.649 -0.251 -1.183 -0.321 -1.584 -0.234l0.08 0.062c0.289 0.227 0.642 0.477 1.057 0.746l-0.574 0.736a12.303 12.303 0 0 0 -1.096 -0.971Zm-2.131 3.94 -0.271 0.551c-0.174 -0.158 -0.45 -0.403 -0.805 -0.759 0.486 0.073 0.845 0.147 1.077 0.208Zm0.358 2.124 0.379 -0.768c-0.241 -0.178 -0.424 -0.327 -0.553 -0.44l0.386 -0.783c0.166 0.028 0.394 0.087 0.685 0.172l0.416 -0.845c-1.215 -0.1 -2.226 -0.239 -3.025 -0.418a11.538 11.538 0 0 1 -0.468 0.95c0.489 0.359 1.209 1.062 2.18 2.132ZM0.612 23.468 0 23.195l0.479 -1.796a2.004 2.004 0 0 0 0.541 0.007c0.522 0.642 0.997 1.196 1.421 1.656l0.02 -0.074c0.093 -0.348 0.167 -0.721 0.202 -1.134l0.623 0.263 -0.509 1.91c-0.156 -0.008 -0.309 0.001 -0.475 0.028 -0.503 -0.653 -0.995 -1.233 -1.483 -1.736l-0.036 0.137c-0.1 0.375 -0.161 0.714 -0.17 1.013ZM34.481 33.423c0.063 0.236 0.09 0.471 0.079 0.701a0.468 0.468 0 0 1 -0.214 0.371c-0.193 0.123 -0.41 0.218 -0.646 0.282 -0.235 0.063 -0.47 0.09 -0.698 0.079a0.465 0.465 0 0 1 -0.372 -0.215c-0.123 -0.193 -0.217 -0.41 -0.28 -0.646 -0.063 -0.236 -0.09 -0.471 -0.079 -0.7a0.465 0.465 0 0 1 0.214 -0.371c0.193 -0.124 0.41 -0.218 0.645 -0.282 0.235 -0.063 0.47 -0.09 0.698 -0.079a0.463 0.463 0 0 1 0.372 0.214c0.123 0.192 0.217 0.41 0.281 0.646Zm-6.291 6.134c-0.235 0.063 -0.47 0.09 -0.698 0.079a0.465 0.465 0 0 1 -0.372 -0.215c-0.123 -0.193 -0.217 -0.41 -0.28 -0.646 -0.063 -0.236 -0.09 -0.471 -0.079 -0.7a0.465 0.465 0 0 1 0.214 -0.372c0.193 -0.123 0.41 -0.218 0.645 -0.281 0.235 -0.063 0.47 -0.09 0.698 -0.079 0.152 0.006 0.29 0.087 0.372 0.214 0.123 0.192 0.217 0.41 0.281 0.646 0.063 0.236 0.09 0.471 0.079 0.7a0.467 0.467 0 0 1 -0.214 0.371c-0.192 0.123 -0.409 0.218 -0.646 0.282Zm2.29 1.109c0.07 0.135 0.07 0.295 0 0.43 -0.105 0.203 -0.246 0.393 -0.418 0.566 -0.173 0.173 -0.363 0.314 -0.566 0.419a0.464 0.464 0 0 1 -0.428 0c-0.203 -0.105 -0.393 -0.246 -0.566 -0.419 -0.172 -0.173 -0.313 -0.363 -0.417 -0.566 -0.07 -0.135 -0.07 -0.295 0 -0.43 0.105 -0.203 0.246 -0.393 0.418 -0.566 0.172 -0.173 0.363 -0.314 0.565 -0.419a0.46 0.46 0 0 1 0.214 -0.052 0.459 0.459 0 0 1 0.214 0.052c0.203 0.106 0.394 0.247 0.566 0.419 0.172 0.172 0.313 0.363 0.418 0.566Zm-2.395 -4.351a0.466 0.466 0 0 1 0 -0.43c0.105 -0.203 0.246 -0.393 0.418 -0.566 0.172 -0.172 0.363 -0.313 0.565 -0.419a0.46 0.46 0 0 1 0.214 -0.053c0.073 0 0.147 0.017 0.214 0.053 0.203 0.106 0.394 0.246 0.566 0.419 0.172 0.172 0.313 0.363 0.418 0.566a0.466 0.466 0 0 1 0 0.43c-0.105 0.203 -0.246 0.393 -0.418 0.567 -0.173 0.173 -0.363 0.314 -0.566 0.419a0.466 0.466 0 0 1 -0.428 0c-0.203 -0.105 -0.393 -0.246 -0.566 -0.419 -0.172 -0.173 -0.313 -0.363 -0.417 -0.566Zm3.719 1.761c0.01 0.229 -0.016 0.465 -0.079 0.7 -0.063 0.235 -0.158 0.453 -0.281 0.646a0.464 0.464 0 0 1 -0.371 0.215c-0.228 0.01 -0.463 -0.017 -0.699 -0.08 -0.236 -0.064 -0.452 -0.158 -0.645 -0.281a0.466 0.466 0 0 1 -0.214 -0.371c-0.01 -0.229 0.016 -0.464 0.079 -0.701 0.063 -0.236 0.158 -0.453 0.28 -0.645a0.464 0.464 0 0 1 0.371 -0.216c0.228 -0.01 0.463 0.017 0.699 0.08 0.235 0.064 0.452 0.158 0.645 0.281a0.46 0.46 0 0 1 0.152 0.16c0.037 0.064 0.059 0.136 0.062 0.212Zm-4.498 -1.195c-0.173 0.173 -0.363 0.314 -0.566 0.419a0.464 0.464 0 0 1 -0.213 0.052 0.467 0.467 0 0 1 -0.214 -0.052c-0.203 -0.105 -0.393 -0.246 -0.566 -0.419 -0.172 -0.173 -0.313 -0.363 -0.417 -0.566a0.466 0.466 0 0 1 0 -0.43c0.105 -0.203 0.246 -0.393 0.418 -0.566 0.173 -0.172 0.363 -0.313 0.565 -0.419a0.461 0.461 0 0 1 0.214 -0.053c0.074 0 0.147 0.017 0.214 0.053 0.203 0.106 0.394 0.246 0.566 0.419 0.172 0.172 0.313 0.363 0.418 0.566a0.465 0.465 0 0 1 0 0.43c-0.105 0.203 -0.246 0.393 -0.418 0.567Zm5.928 -0.996a0.465 0.465 0 0 1 0.001 0.43c-0.105 0.203 -0.246 0.393 -0.418 0.567 -0.173 0.173 -0.363 0.314 -0.566 0.419a0.466 0.466 0 0 1 -0.428 0c-0.203 -0.105 -0.393 -0.246 -0.566 -0.419 -0.172 -0.173 -0.313 -0.363 -0.418 -0.566a0.467 0.467 0 0 1 0 -0.43c0.105 -0.203 0.246 -0.393 0.418 -0.566 0.172 -0.172 0.363 -0.313 0.565 -0.419a0.46 0.46 0 0 1 0.214 -0.053c0.073 0 0.147 0.017 0.214 0.053 0.203 0.106 0.394 0.246 0.566 0.419 0.172 0.172 0.313 0.363 0.418 0.566Zm-6.395 -1.89c-0.063 -0.236 -0.09 -0.471 -0.079 -0.7a0.461 0.461 0 0 1 0.062 -0.212 0.462 0.462 0 0 1 0.152 -0.159c0.193 -0.124 0.41 -0.218 0.645 -0.282 0.235 -0.063 0.47 -0.09 0.698 -0.079a0.463 0.463 0 0 1 0.372 0.214c0.123 0.192 0.217 0.41 0.281 0.646 0.063 0.236 0.09 0.471 0.079 0.701a0.461 0.461 0 0 1 -0.062 0.211 0.464 0.464 0 0 1 -0.152 0.16c-0.192 0.123 -0.409 0.218 -0.646 0.282 -0.235 0.063 -0.47 0.09 -0.698 0.079a0.465 0.465 0 0 1 -0.372 -0.215c-0.123 -0.193 -0.217 -0.41 -0.28 -0.646Zm-1.976 0.781c-0.236 -0.064 -0.453 -0.158 -0.645 -0.281a0.464 0.464 0 0 1 -0.152 -0.159 0.469 0.469 0 0 1 -0.062 -0.212c-0.01 -0.229 0.016 -0.464 0.079 -0.701 0.063 -0.236 0.157 -0.453 0.28 -0.645a0.464 0.464 0 0 1 0.372 -0.216c0.228 -0.01 0.463 0.017 0.699 0.08 0.236 0.063 0.452 0.158 0.645 0.281a0.46 0.46 0 0 1 0.152 0.16c0.037 0.064 0.059 0.136 0.062 0.212 0.01 0.229 -0.016 0.465 -0.079 0.7 -0.063 0.235 -0.158 0.453 -0.281 0.645a0.463 0.463 0 0 1 -0.371 0.215c-0.228 0.01 -0.463 -0.017 -0.699 -0.08Zm1.877 -4.658c0.203 0.106 0.394 0.247 0.566 0.419 0.172 0.173 0.313 0.363 0.418 0.566 0.07 0.135 0.07 0.295 0 0.43 -0.105 0.203 -0.246 0.394 -0.418 0.567 -0.173 0.173 -0.363 0.314 -0.566 0.419a0.465 0.465 0 0 1 -0.428 0c-0.203 -0.106 -0.393 -0.246 -0.566 -0.419 -0.172 -0.173 -0.313 -0.363 -0.417 -0.566a0.466 0.466 0 0 1 0 -0.43c0.105 -0.203 0.246 -0.393 0.418 -0.566 0.173 -0.172 0.363 -0.313 0.565 -0.419a0.463 0.463 0 0 1 0.214 -0.052c0.074 0 0.147 0.017 0.214 0.052Zm5.083 2.4c-0.203 -0.106 -0.393 -0.246 -0.566 -0.419 -0.172 -0.173 -0.313 -0.363 -0.418 -0.566a0.467 0.467 0 0 1 0 -0.43c0.105 -0.203 0.246 -0.393 0.418 -0.566 0.172 -0.172 0.363 -0.313 0.565 -0.419a0.462 0.462 0 0 1 0.214 -0.052c0.073 0 0.147 0.017 0.214 0.052 0.203 0.106 0.394 0.247 0.566 0.419 0.172 0.173 0.313 0.363 0.418 0.566 0.07 0.135 0.07 0.295 0.001 0.43 -0.105 0.203 -0.246 0.394 -0.418 0.567 -0.173 0.173 -0.363 0.314 -0.566 0.419a0.464 0.464 0 0 1 -0.428 0Zm4.167 -1.415a0.465 0.465 0 0 1 0 0.43c-0.105 0.203 -0.246 0.394 -0.418 0.566a2.305 2.305 0 0 1 -0.566 0.419 0.459 0.459 0 0 1 -0.214 0.052 0.46 0.46 0 0 1 -0.214 -0.052c-0.203 -0.105 -0.393 -0.246 -0.565 -0.419 -0.172 -0.173 -0.313 -0.363 -0.418 -0.566a0.466 0.466 0 0 1 0 -0.43c0.105 -0.202 0.245 -0.393 0.417 -0.566 0.173 -0.173 0.363 -0.314 0.566 -0.419a0.467 0.467 0 0 1 0.428 0c0.203 0.106 0.393 0.246 0.566 0.419 0.173 0.173 0.313 0.364 0.418 0.567Zm-5.929 -0.567c0.172 0.173 0.313 0.363 0.418 0.566 0.07 0.135 0.07 0.295 0 0.43 -0.105 0.203 -0.246 0.394 -0.418 0.567 -0.173 0.173 -0.363 0.314 -0.566 0.419a0.464 0.464 0 0 1 -0.428 0c-0.203 -0.106 -0.393 -0.246 -0.566 -0.419 -0.172 -0.173 -0.313 -0.363 -0.417 -0.566a0.466 0.466 0 0 1 0 -0.43c0.105 -0.203 0.246 -0.393 0.418 -0.566 0.172 -0.172 0.363 -0.313 0.565 -0.419a0.462 0.462 0 0 1 0.214 -0.052c0.073 0 0.147 0.017 0.214 0.052 0.203 0.106 0.394 0.247 0.566 0.419Zm0.313 4.239c-0.236 -0.064 -0.452 -0.158 -0.645 -0.281a0.462 0.462 0 0 1 -0.152 -0.159 0.464 0.464 0 0 1 -0.062 -0.212c-0.01 -0.229 0.016 -0.464 0.079 -0.701 0.063 -0.236 0.158 -0.453 0.28 -0.645a0.463 0.463 0 0 1 0.371 -0.216c0.228 -0.01 0.463 0.017 0.699 0.08 0.235 0.063 0.452 0.158 0.645 0.281a0.46 0.46 0 0 1 0.152 0.16c0.037 0.064 0.059 0.136 0.062 0.212 0.01 0.229 -0.016 0.465 -0.079 0.7 -0.063 0.235 -0.158 0.453 -0.281 0.645a0.463 0.463 0 0 1 -0.371 0.215c-0.228 0.01 -0.463 -0.017 -0.699 -0.08Zm3.326 -6.915c0.236 0.064 0.453 0.158 0.646 0.282a0.471 0.471 0 0 1 0.152 0.16c0.036 0.063 0.058 0.136 0.062 0.211 0.01 0.229 -0.016 0.464 -0.079 0.7 -0.064 0.236 -0.158 0.454 -0.281 0.646a0.463 0.463 0 0 1 -0.372 0.214c-0.228 0.01 -0.463 -0.016 -0.698 -0.079 -0.235 -0.063 -0.451 -0.158 -0.645 -0.281a0.466 0.466 0 0 1 -0.214 -0.372c-0.01 -0.228 0.017 -0.464 0.079 -0.7 0.063 -0.236 0.157 -0.453 0.28 -0.646a0.465 0.465 0 0 1 0.372 -0.215c0.227 -0.01 0.462 0.016 0.698 0.079ZM26.761 24.561c-0.011 -0.229 0.016 -0.464 0.079 -0.7 0.063 -0.236 0.157 -0.453 0.28 -0.646a0.464 0.464 0 0 1 0.372 -0.215c0.227 -0.01 0.462 0.016 0.698 0.079 0.236 0.064 0.453 0.158 0.646 0.282a0.465 0.465 0 0 1 0.152 0.16c0.037 0.064 0.059 0.136 0.062 0.211 0.01 0.229 -0.016 0.464 -0.079 0.7 -0.063 0.236 -0.158 0.454 -0.281 0.646a0.463 0.463 0 0 1 -0.372 0.214c-0.228 0.011 -0.463 -0.016 -0.698 -0.079 -0.235 -0.063 -0.452 -0.158 -0.645 -0.281a0.465 0.465 0 0 1 -0.214 -0.371Zm1.324 -2.59a0.466 0.466 0 0 1 0 -0.43c0.105 -0.202 0.245 -0.393 0.417 -0.566 0.173 -0.173 0.363 -0.314 0.566 -0.419a0.466 0.466 0 0 1 0.428 0c0.203 0.106 0.393 0.246 0.566 0.419 0.173 0.173 0.313 0.364 0.418 0.567a0.466 0.466 0 0 1 0 0.43c-0.105 0.203 -0.246 0.394 -0.418 0.566 -0.172 0.172 -0.362 0.313 -0.566 0.419a0.462 0.462 0 0 1 -0.214 0.052 0.462 0.462 0 0 1 -0.214 -0.052c-0.203 -0.105 -0.393 -0.246 -0.565 -0.419 -0.173 -0.173 -0.313 -0.363 -0.418 -0.566Zm2.396 4.352a0.466 0.466 0 0 1 0 0.43c-0.105 0.203 -0.246 0.394 -0.418 0.566 -0.172 0.172 -0.362 0.313 -0.566 0.419a0.462 0.462 0 0 1 -0.214 0.052 0.462 0.462 0 0 1 -0.214 -0.052c-0.203 -0.105 -0.393 -0.246 -0.565 -0.419 -0.173 -0.173 -0.313 -0.363 -0.418 -0.566a0.466 0.466 0 0 1 0 -0.43c0.105 -0.202 0.245 -0.393 0.417 -0.566 0.173 -0.173 0.363 -0.314 0.566 -0.419a0.466 0.466 0 0 1 0.428 0c0.203 0.105 0.393 0.246 0.566 0.419 0.173 0.173 0.313 0.364 0.418 0.567Zm-0.106 -3.243c0.236 -0.063 0.471 -0.09 0.699 -0.08a0.464 0.464 0 0 1 0.371 0.215c0.123 0.192 0.218 0.41 0.281 0.645 0.063 0.235 0.089 0.471 0.079 0.7a0.46 0.46 0 0 1 -0.062 0.212 0.464 0.464 0 0 1 -0.152 0.16c-0.192 0.123 -0.409 0.218 -0.645 0.281 -0.236 0.063 -0.471 0.09 -0.699 0.08a0.464 0.464 0 0 1 -0.371 -0.216c-0.123 -0.192 -0.217 -0.409 -0.28 -0.645 -0.063 -0.236 -0.09 -0.472 -0.079 -0.701a0.466 0.466 0 0 1 0.062 -0.212 0.464 0.464 0 0 1 0.152 -0.159c0.193 -0.123 0.409 -0.218 0.645 -0.281Zm-5.046 3.672a0.466 0.466 0 0 1 0 -0.43c0.105 -0.202 0.245 -0.393 0.417 -0.566 0.173 -0.173 0.363 -0.314 0.566 -0.419a0.467 0.467 0 0 1 0.214 -0.052c0.073 0 0.147 0.017 0.213 0.052 0.203 0.105 0.393 0.246 0.566 0.419 0.173 0.173 0.313 0.364 0.418 0.567a0.465 0.465 0 0 1 0 0.43c-0.105 0.203 -0.246 0.394 -0.418 0.566 -0.172 0.172 -0.362 0.313 -0.566 0.419a0.463 0.463 0 0 1 -0.428 0c-0.203 -0.105 -0.393 -0.246 -0.565 -0.419 -0.172 -0.173 -0.313 -0.363 -0.418 -0.566Zm5.929 -0.996c0.173 -0.173 0.363 -0.314 0.566 -0.419a0.466 0.466 0 0 1 0.428 0c0.203 0.105 0.393 0.246 0.566 0.419 0.172 0.173 0.313 0.364 0.418 0.567a0.465 0.465 0 0 1 0 0.43c-0.105 0.203 -0.246 0.394 -0.418 0.566 -0.172 0.172 -0.362 0.313 -0.566 0.419a0.462 0.462 0 0 1 -0.214 0.052 0.462 0.462 0 0 1 -0.214 -0.052c-0.203 -0.105 -0.393 -0.246 -0.565 -0.419 -0.173 -0.173 -0.313 -0.363 -0.418 -0.566a0.467 0.467 0 0 1 0 -0.43c0.105 -0.202 0.245 -0.393 0.418 -0.566Zm-3.068 2.105c0.236 0.064 0.453 0.158 0.646 0.282a0.465 0.465 0 0 1 0.152 0.16 0.461 0.461 0 0 1 0.062 0.211c0.01 0.229 -0.016 0.464 -0.079 0.7 -0.063 0.236 -0.158 0.454 -0.281 0.646a0.463 0.463 0 0 1 -0.372 0.214c-0.228 0.01 -0.463 -0.016 -0.698 -0.079 -0.235 -0.063 -0.452 -0.158 -0.645 -0.281a0.465 0.465 0 0 1 -0.214 -0.372c-0.011 -0.228 0.016 -0.464 0.079 -0.7 0.063 -0.236 0.157 -0.453 0.28 -0.646a0.464 0.464 0 0 1 0.372 -0.215c0.227 -0.01 0.462 0.016 0.698 0.079Zm-4.105 1.353c-0.063 -0.237 -0.09 -0.472 -0.079 -0.701a0.466 0.466 0 0 1 0.214 -0.371c0.193 -0.123 0.409 -0.218 0.645 -0.281 0.236 -0.063 0.471 -0.09 0.699 -0.079a0.464 0.464 0 0 1 0.371 0.215c0.123 0.192 0.218 0.41 0.281 0.645 0.063 0.235 0.089 0.471 0.079 0.7a0.465 0.465 0 0 1 -0.214 0.372c-0.192 0.123 -0.409 0.218 -0.645 0.281 -0.236 0.063 -0.47 0.09 -0.699 0.08a0.465 0.465 0 0 1 -0.372 -0.216c-0.123 -0.192 -0.217 -0.409 -0.28 -0.645Zm6.861 0.781c-0.236 0.063 -0.471 0.09 -0.699 0.08a0.464 0.464 0 0 1 -0.371 -0.216c-0.123 -0.192 -0.217 -0.409 -0.28 -0.645 -0.063 -0.236 -0.09 -0.472 -0.079 -0.701a0.465 0.465 0 0 1 0.062 -0.212 0.464 0.464 0 0 1 0.152 -0.159c0.193 -0.123 0.409 -0.218 0.645 -0.281 0.236 -0.063 0.471 -0.09 0.699 -0.079a0.464 0.464 0 0 1 0.371 0.215c0.123 0.192 0.218 0.41 0.281 0.645 0.063 0.235 0.089 0.471 0.079 0.7a0.461 0.461 0 0 1 -0.062 0.212 0.464 0.464 0 0 1 -0.152 0.16c-0.192 0.123 -0.409 0.218 -0.645 0.281Zm-6.394 2.105a2.308 2.308 0 0 1 -0.565 0.419 0.46 0.46 0 0 1 -0.214 0.052 0.46 0.46 0 0 1 -0.214 -0.052c-0.203 -0.105 -0.393 -0.246 -0.565 -0.419 -0.172 -0.173 -0.313 -0.363 -0.418 -0.566a0.467 0.467 0 0 1 0 -0.43c0.105 -0.202 0.245 -0.393 0.418 -0.566 0.173 -0.173 0.363 -0.314 0.566 -0.419a0.466 0.466 0 0 1 0.428 0c0.203 0.106 0.393 0.246 0.566 0.419 0.173 0.173 0.314 0.364 0.418 0.567 0.07 0.135 0.07 0.295 -0.001 0.43 -0.105 0.203 -0.246 0.394 -0.418 0.566Zm4.731 12.76c-1.274 -5.157 -7.278 -8.969 -7.278 -13.541v0c0 -4.572 6.004 -8.384 7.278 -13.541 1.275 5.157 7.278 8.969 7.278 13.541v0c0 4.572 -6.004 8.384 -7.278 13.541Zm14.556 3.735c-2.177 -2.104 -5.494 -3.617 -8.287 -3.921 0.487 -0.395 1.677 -0.745 2.517 -0.745 6.163 2.238 8.159 -1.75 10.618 -2.45 -2.13 -0.604 -4.664 -0.564 -6.811 -0.024 0.149 -0.502 1.074 -1.347 1.821 -1.695 5.877 -0.523 5.991 -4.537 7.731 -6.044 -1.966 0.319 -4.019 1.317 -5.564 2.576 -0.069 -0.466 0.365 -1.508 0.841 -2.077 4.595 -2.666 3.164 -5.983 4.011 -7.876 -2.616 1.781 -4.651 5.39 -4.312 7.707 -0.873 1.074 -0.925 2.147 -1.264 2.89 -0.816 0.799 -1.414 1.666 -1.667 2.512 -1.383 0.671 -1.938 1.727 -2.628 2.316 -1.196 0.421 -2.205 1.013 -2.856 1.746 -1.758 0.025 -2.824 0.874 -3.818 1.117 -0.596 0.03 -1.148 0.129 -1.635 0.308 -0.78 0.03 -1.109 0.004 -1.783 0.486 0.616 -1.427 2.232 -2.568 4.163 -3.131 9.15 -2.664 17.419 -13.503 -1.28 -24.252 -1 -0.575 -1.098 -2.166 -0.557 -3.121 -0.538 -0.013 -1.582 0.062 -2.591 1.267v-3.799h1.597c0.511 0.001 0.963 0.324 1.15 0.821l0.11 0.293 0.201 -0.239c0.224 -0.265 0.454 -0.763 0.432 -1.232 0.541 -0.071 1.01 -0.339 1.277 -0.74l0.068 -0.102 -0.068 -0.102c-0.268 -0.401 -0.736 -0.67 -1.277 -0.74 0.021 -0.471 -0.208 -0.968 -0.432 -1.233l-0.201 -0.239 -0.11 0.293c-0.187 0.498 -0.638 0.821 -1.149 0.822h-1.597V8.432c0 -0.507 0.326 -0.954 0.827 -1.139l0.298 -0.11 -0.244 -0.203c-0.256 -0.214 -0.72 -0.43 -1.178 -0.43 -0.021 0 -0.042 0.001 -0.064 0.001 -0.071 -0.536 -0.341 -1.001 -0.745 -1.268l-0.101 -0.066 -0.101 0.066c-0.403 0.266 -0.674 0.731 -0.745 1.268 -0.021 0 -0.042 -0.001 -0.064 -0.001 -0.459 0 -0.922 0.216 -1.178 0.43l-0.244 0.203 0.298 0.11c0.502 0.185 0.827 0.632 0.828 1.138v1.556h-1.596c-0.512 -0.001 -0.964 -0.324 -1.15 -0.821l-0.11 -0.293 -0.202 0.239c-0.224 0.264 -0.453 0.761 -0.432 1.233 -0.541 0.071 -1.009 0.339 -1.277 0.74l-0.068 0.102 0.068 0.102c0.267 0.4 0.735 0.669 1.277 0.74 -0.021 0.471 0.209 0.968 0.432 1.232l0.202 0.239 0.11 -0.293c0.186 -0.498 0.638 -0.82 1.149 -0.821h1.596v3.799c-1.009 -1.206 -2.053 -1.28 -2.591 -1.267 0.54 0.954 0.443 2.546 -0.557 3.121C6.23 28.786 14.498 39.625 23.649 42.289c1.931 0.562 3.547 1.703 4.163 3.13 -0.673 -0.481 -1.002 -0.455 -1.782 -0.485 -0.497 -0.183 -1.063 -0.282 -1.673 -0.309 -0.992 -0.245 -2.058 -1.09 -3.811 -1.115 -0.651 -0.733 -1.661 -1.325 -2.856 -1.746 -0.689 -0.589 -1.245 -1.645 -2.628 -2.316 -0.253 -0.846 -0.852 -1.714 -1.667 -2.512 -0.339 -0.743 -0.391 -1.816 -1.264 -2.89 0.339 -2.317 -1.696 -5.925 -4.312 -7.707 0.847 1.893 -0.583 5.21 4.011 7.876 0.477 0.569 0.911 1.611 0.841 2.077 -1.546 -1.259 -3.598 -2.257 -5.564 -2.576 1.741 1.507 1.855 5.521 7.731 6.044 0.747 0.349 1.672 1.193 1.821 1.695 -2.146 -0.54 -4.681 -0.58 -6.81 0.024 2.459 0.699 4.455 4.687 10.618 2.449 0.843 0 2.037 0.352 2.521 0.748 -2.788 0.311 -6.091 1.821 -8.261 3.918 2.715 -0.594 6.636 2.117 11.394 -3.196 0.744 -0.081 1.863 0.766 1.956 2.102v1.053c-0.001 0.507 -0.326 0.954 -0.827 1.139l-0.298 0.11 0.244 0.203c0.256 0.214 0.72 0.43 1.177 0.43 0.022 0 0.044 -0.001 0.065 -0.002 0.071 0.537 0.342 1.002 0.745 1.268l0.101 0.066 0.101 -0.066c0.403 -0.267 0.674 -0.732 0.746 -1.268 0.021 0.001 0.043 0.002 0.064 0.002 0.457 0 0.921 -0.216 1.177 -0.43l0.244 -0.204 -0.298 -0.11c-0.502 -0.185 -0.827 -0.632 -0.828 -1.139v-1.05c0.091 -1.338 1.212 -2.186 1.956 -2.106 4.759 5.313 8.68 2.602 11.394 3.196Z" fill="#C12030"/><path d="M78.144 11.475v13.246h4.522c1.343 0 2.422 -0.341 3.217 -1.041 0.814 -0.7 1.211 -1.646 1.211 -2.801 0 -1.457 -0.776 -2.554 -2.082 -3.065 0.87 -0.624 1.306 -1.514 1.306 -2.668 0 -2.252 -1.627 -3.671 -4.257 -3.671h-3.917Zm4.522 7.474c1.381 0 2.233 0.681 2.233 1.873 0 1.211 -0.852 1.911 -2.233 1.911h-2.403v-3.785h2.403Zm-0.606 -5.487c1.306 0 2.081 0.643 2.081 1.836 0 1.06 -0.795 1.76 -2.025 1.76h-1.854v-3.595h1.798Zm7.571 2.876c-0.927 0.927 -1.381 2.138 -1.381 3.595 0 1.457 0.454 2.668 1.381 3.595 0.927 0.927 2.1 1.4 3.538 1.4 1.438 0 2.611 -0.473 3.538 -1.4 0.927 -0.927 1.4 -2.138 1.4 -3.595 0 -1.457 -0.473 -2.668 -1.4 -3.595 -0.927 -0.927 -2.1 -1.4 -3.538 -1.4 -1.438 0 -2.611 0.473 -3.538 1.4Zm5.601 1.343c0.53 0.587 0.795 1.344 0.795 2.252s-0.265 1.665 -0.795 2.252c-0.511 0.587 -1.192 0.889 -2.044 0.889 -0.852 0 -1.533 -0.303 -2.063 -0.889 -0.53 -0.587 -0.795 -1.344 -0.795 -2.252s0.265 -1.665 0.795 -2.252c0.53 -0.587 1.211 -0.889 2.063 -0.889 0.851 0 1.533 0.303 2.044 0.889Zm9.274 -2.744c-1.23 0 -2.157 0.606 -2.63 1.495l-0.151 -1.287h-1.741v9.575h2.006v-5.09c0 -1.741 0.814 -2.725 1.968 -2.725 1.041 0 1.627 0.7 1.627 2.006v5.809h2.025v-6.207c0 -2.176 -1.116 -3.576 -3.103 -3.576Zm5.603 0.208v9.575h2.006v-9.575h-2.006Zm1.003 -4.144c-0.7 0 -1.287 0.549 -1.287 1.287 -0.095 1.098 1.457 1.665 2.214 0.889 0.833 -0.7 0.208 -2.252 -0.927 -2.176Zm7.325 -0.284c-2.025 0 -3.141 1.135 -3.141 3.179v1.249h-1.627v1.835h1.627v7.739h2.025v-7.739h2.29v-1.835h-2.29v-1.192c0 -0.965 0.435 -1.438 1.306 -1.438 0.36 0 0.719 0.076 1.079 0.208v-1.798c-0.322 -0.132 -0.757 -0.208 -1.268 -0.208Zm7.514 4.333c-1.514 0 -2.46 0.738 -2.819 1.722l-0.17 -1.627h-1.76v9.575h2.006v-4.977c0.019 -0.889 0.284 -1.571 0.833 -2.025 0.492 -0.435 1.135 -0.643 1.911 -0.643v-2.025Zm4.865 -0.114c-1.079 0 -1.949 0.322 -2.611 0.946 -0.662 0.624 -1.022 1.4 -1.06 2.365h1.949c0 -0.927 0.738 -1.514 1.722 -1.514 1.041 0 1.571 0.568 1.571 1.722v0.435l-2.725 0.492c-1.873 0.36 -2.8 1.287 -2.8 2.819 0 1.684 1.135 2.725 2.857 2.725 1.306 0 2.252 -0.492 2.819 -1.457l0.095 1.249h1.779v-6.301c0 -2.252 -1.344 -3.482 -3.595 -3.482Zm1.571 5.809c0 0.587 -0.151 1.079 -0.454 1.514 -0.397 0.624 -0.965 0.927 -1.741 0.927 -0.833 0 -1.306 -0.416 -1.306 -1.079 0 -0.624 0.397 -1.041 1.211 -1.211l2.29 -0.492v0.341Zm4.979 -7.947 -0.019 2.346h-1.684v1.854h1.684l-0.038 4.977c-0.019 1.987 0.946 2.876 2.914 2.876 0.624 0 1.116 -0.076 1.476 -0.208v-1.779c-0.303 0.095 -0.662 0.151 -1.079 0.151 -0.984 0 -1.306 -0.416 -1.306 -1.476l0.038 -4.541h2.346v-1.854h-2.327l0.019 -2.346h-2.025Zm10.107 2.138c-1.4 0 -2.536 0.473 -3.387 1.419 -0.852 0.927 -1.287 2.138 -1.287 3.595 0 1.495 0.435 2.706 1.287 3.614 0.87 0.908 2.006 1.362 3.387 1.362 2.214 0 3.709 -1.154 4.314 -3.141h-1.968c-0.36 0.908 -1.116 1.362 -2.29 1.362 -1.495 0 -2.555 -0.984 -2.649 -2.517h6.982v-0.776c0 -3.179 -1.76 -4.92 -4.39 -4.92Zm-0.019 1.76c1.419 0 2.365 0.927 2.384 2.365h-4.939c0.132 -1.381 1.116 -2.365 2.554 -2.365Zm11.28 -1.646c-1.514 0 -2.46 0.738 -2.819 1.722l-0.17 -1.627H153.984v9.575h2.006v-4.977c0.019 -0.889 0.284 -1.571 0.833 -2.025 0.492 -0.435 1.135 -0.643 1.911 -0.643v-2.025Zm4.562 -0.114c-1.041 0 -1.873 0.303 -2.46 0.889 -0.587 0.587 -0.87 1.287 -0.87 2.119 0 1.533 0.927 2.346 2.99 2.782 1.457 0.303 1.873 0.643 1.873 1.381 0 0.681 -0.511 1.116 -1.438 1.116 -1.003 0 -1.608 -0.511 -1.627 -1.4h-2.025c0.057 1.911 1.362 3.103 3.614 3.103 2.044 0 3.501 -1.098 3.501 -3.009 0 -1.59 -0.852 -2.422 -3.122 -2.876 -1.362 -0.303 -1.741 -0.587 -1.741 -1.268 0 -0.662 0.454 -1.116 1.268 -1.116 0.87 0 1.325 0.435 1.343 1.306h2.006c-0.019 -0.908 -0.341 -1.646 -0.965 -2.195 -0.606 -0.549 -1.381 -0.833 -2.346 -0.833Zm5.584 -4.03v13.813h2.006v-2.46l1.268 -1.571 2.573 4.03h2.29l-3.444 -5.582 2.952 -3.993h-2.422l-3.217 4.22v-8.458zm9.615 4.239v9.575h2.006v-9.575h-2.006Zm1.003 -4.144c-0.7 0 -1.287 0.549 -1.287 1.287 -0.095 1.098 1.457 1.665 2.214 0.889 0.833 -0.7 0.208 -2.252 -0.927 -2.176Zm7.59 3.936c-1.4 0 -2.536 0.473 -3.387 1.419 -0.852 0.927 -1.287 2.138 -1.287 3.595 0 1.495 0.435 2.706 1.287 3.614 0.87 0.908 2.006 1.362 3.387 1.362 2.214 0 3.709 -1.154 4.314 -3.141h-1.968c-0.36 0.908 -1.116 1.362 -2.29 1.362 -1.495 0 -2.555 -0.984 -2.649 -2.517h6.982v-0.776c0 -3.179 -1.76 -4.92 -4.39 -4.92Zm-0.019 1.76c1.419 0 2.365 0.927 2.384 2.365h-4.939c0.132 -1.381 1.116 -2.365 2.554 -2.365ZM84.029 35.121c-1.911 0 -3.501 0.643 -4.731 1.949 -1.23 1.306 -1.854 2.933 -1.854 4.92 0 1.987 0.624 3.614 1.854 4.92 1.249 1.306 2.838 1.949 4.768 1.949 3.179 0 5.222 -1.608 5.979 -4.428h-2.271c-0.53 1.495 -1.76 2.441 -3.709 2.441 -1.306 0 -2.365 -0.454 -3.179 -1.381 -0.814 -0.927 -1.211 -2.081 -1.211 -3.501 0 -1.419 0.397 -2.592 1.211 -3.501 0.814 -0.927 1.854 -1.381 3.141 -1.381 1.854 0 3.065 0.776 3.633 2.346h2.346c-0.738 -2.706 -2.819 -4.333 -5.979 -4.333Zm11.715 3.709c-1.4 0 -2.536 0.473 -3.387 1.419 -0.852 0.927 -1.287 2.138 -1.287 3.595 0 1.495 0.435 2.706 1.287 3.614 0.87 0.908 2.006 1.362 3.387 1.362 2.214 0 3.709 -1.154 4.314 -3.141h-1.968c-0.36 0.908 -1.116 1.362 -2.29 1.362 -1.495 0 -2.554 -0.984 -2.649 -2.517h6.982v-0.776c0 -3.179 -1.76 -4.92 -4.39 -4.92Zm-0.019 1.76c1.419 0 2.365 0.927 2.384 2.365h-4.939c0.132 -1.381 1.116 -2.365 2.554 -2.365Zm10.977 -1.76c-1.23 0 -2.157 0.606 -2.63 1.495l-0.151 -1.287h-1.741v9.575h2.006V43.523c0 -1.741 0.814 -2.725 1.968 -2.725 1.041 0 1.627 0.7 1.627 2.006v5.809h2.025v-6.207c0 -2.176 -1.116 -3.576 -3.103 -3.576Zm6.114 -2.138 -0.019 2.346h-1.684v1.854h1.684l-0.038 4.977c-0.019 1.987 0.946 2.876 2.914 2.876 0.624 0 1.116 -0.076 1.476 -0.208v-1.779c-0.303 0.095 -0.662 0.151 -1.079 0.151 -0.984 0 -1.306 -0.416 -1.306 -1.476l0.038 -4.541h2.346v-1.854h-2.327l0.019 -2.346h-2.025Zm10.996 2.252c-1.514 0 -2.46 0.738 -2.819 1.722l-0.17 -1.627h-1.76v9.575h2.006v-4.977c0.019 -0.889 0.284 -1.571 0.833 -2.025 0.492 -0.435 1.135 -0.643 1.911 -0.643v-2.025Zm7.117 0.095v5.241c0 1.646 -0.795 2.592 -1.93 2.592 -1.079 0 -1.608 -0.681 -1.608 -2.025v-5.809h-2.006v6.207c0 2.195 1.041 3.576 3.065 3.576 1.23 0 2.1 -0.492 2.592 -1.495l0.132 1.287h1.76v-9.575h-2.006Zm14.705 -0.208c-1.268 0 -2.214 0.587 -2.838 1.779 -0.473 -1.192 -1.381 -1.779 -2.763 -1.779 -1.211 0 -2.119 0.606 -2.592 1.495l-0.151 -1.287h-1.741v9.575h2.006V43.523c0 -1.741 0.795 -2.725 1.949 -2.725 1.079 0 1.608 0.662 1.608 2.006v5.809h2.006v-5.09c0 -1.741 0.833 -2.725 1.968 -2.725 1.079 0 1.608 0.662 1.608 2.006v5.809h2.006v-6.207c0 -2.195 -1.079 -3.576 -3.065 -3.576Zm20.705 -3.463 -4.201 9.177 -0.36 0.814 -0.322 -0.814 -4.201 -9.177h-2.384v13.246h2.119v-9.196l0.36 1.079 3.557 8.118h1.76l3.576 -8.118 0.378 -1.079v9.196h2.119V35.367zm8.971 3.463c-1.4 0 -2.536 0.473 -3.387 1.419 -0.852 0.927 -1.287 2.138 -1.287 3.595 0 1.495 0.435 2.706 1.287 3.614 0.87 0.908 2.006 1.362 3.387 1.362 2.214 0 3.709 -1.154 4.314 -3.141h-1.968c-0.36 0.908 -1.116 1.362 -2.29 1.362 -1.495 0 -2.554 -0.984 -2.649 -2.517h6.982v-0.776c0 -3.179 -1.76 -4.92 -4.39 -4.92Zm-0.019 1.76c1.419 0 2.365 0.927 2.384 2.365h-4.939c0.132 -1.381 1.116 -2.365 2.554 -2.365Zm13.361 -5.79v5.431c-0.662 -0.927 -1.665 -1.4 -3.047 -1.4 -1.306 0 -2.365 0.473 -3.217 1.438 -0.833 0.946 -1.249 2.138 -1.249 3.557s0.416 2.611 1.249 3.576c0.833 0.946 1.892 1.419 3.198 1.419 1.4 0 2.46 -0.511 3.179 -1.552l0.132 1.344h1.76V34.799h-2.006Zm-2.687 5.942c0.719 0 1.343 0.284 1.892 0.852 0.549 0.549 0.814 1.287 0.814 2.214v0.095c0 0.927 -0.265 1.665 -0.814 2.214 -0.53 0.549 -1.173 0.814 -1.911 0.814 -1.608 0 -2.725 -1.268 -2.725 -3.103 0 -1.817 1.154 -3.084 2.744 -3.084Zm13.134 -1.703 -2.233 6.415 -0.189 0.776 -0.189 -0.776 -2.214 -6.415h-2.157l3.501 9.442 -1.533 4.201h2.1l5.071 -13.643zm7.476 -0.208c-1.381 0 -2.498 0.473 -3.387 1.419 -0.889 0.946 -1.325 2.138 -1.325 3.595 0 1.457 0.435 2.668 1.325 3.595 0.889 0.927 2.025 1.381 3.387 1.381 2.195 0 3.879 -1.192 4.352 -3.368h-1.987c-0.284 0.908 -1.173 1.514 -2.29 1.514 -0.776 0 -1.438 -0.303 -1.949 -0.889 -0.511 -0.587 -0.757 -1.344 -0.757 -2.233 0 -0.927 0.246 -1.684 0.757 -2.271 0.511 -0.587 1.135 -0.889 1.911 -0.889 1.135 0 2.006 0.549 2.327 1.533h1.968c-0.397 -2.176 -2.081 -3.387 -4.333 -3.387Zm5.603 0.208v1.779h4.693l-4.731 6.282v1.514h7.682v-1.779h-4.995l4.731 -6.263v-1.533zm13.91 -0.208c-1.23 0 -2.157 0.606 -2.63 1.495l-0.151 -1.287h-1.741v9.575h2.006V43.523c0 -1.741 0.814 -2.725 1.968 -2.725 1.041 0 1.627 0.7 1.627 2.006v5.809h2.025v-6.207c0 -2.176 -1.116 -3.576 -3.103 -3.576Zm9.501 0c-1.4 0 -2.536 0.473 -3.387 1.419 -0.852 0.927 -1.287 2.138 -1.287 3.595 0 1.495 0.435 2.706 1.287 3.614 0.87 0.908 2.006 1.362 3.387 1.362 2.214 0 3.709 -1.154 4.314 -3.141h-1.968c-0.36 0.908 -1.116 1.362 -2.29 1.362 -1.495 0 -2.555 -0.984 -2.649 -2.517h6.982v-0.776c0 -3.179 -1.76 -4.92 -4.39 -4.92Zm-0.019 1.76c1.419 0 2.365 0.927 2.384 2.365h-4.939c0.132 -1.381 1.116 -2.365 2.554 -2.365Z" fill="#122056"/></g></svg>